<svg xmlns="http://www.w3.org/2000/svg" width="20" height="20" viewBox="0 0 20 20" fill="none">
  <g clip-path="url(#clip0_122_732)">
    <path opacity="0.12" d="M10 18.3333C14.6024 18.3333 18.3334 14.6024 18.3334 10C18.3334 5.39763 14.6024 1.66667 10 1.66667C5.39765 1.66667 1.66669 5.39763 1.66669 10C1.66669 14.6024 5.39765 18.3333 10 18.3333Z" fill="#B5BCC4" />
    <path d="M7.91669 6.25H11.4584C12.4939 6.25 13.3334 7.08947 13.3334 8.125C13.3334 9.16054 12.4939 10 11.4584 10H7.91669H11.875C12.9106 10 13.75 10.8395 13.75 11.875C13.75 12.9105 12.9106 13.75 11.875 13.75H7.91669M7.91669 6.25H6.66669M7.91669 6.25V13.75M7.91669 13.75H6.66669M8.33335 5V6.25M8.33335 13.75V15M10.8334 5V6.25M10.8334 13.75V15M18.3334 10C18.3334 14.6024 14.6024 18.3333 10 18.3333C5.39765 18.3333 1.66669 14.6024 1.66669 10C1.66669 5.39763 5.39765 1.66667 10 1.66667C14.6024 1.66667 18.3334 5.39763 18.3334 10Z" stroke="#B5BCC4" stroke-width="2" stroke-linecap="round" stroke-linejoin="round" />
  </g>
  <defs>
    <clipPath id="clip0_122_732">
      <rect width="20" height="20" fill="white" />
    </clipPath>
  </defs>
</svg>