<svg xmlns="http://www.w3.org/2000/svg" width="19" height="18" viewBox="0 0 19 18" fill="none">
  <path d="M10.25 2.43189V5.22C10.25 5.59804 10.25 5.78705 10.3236 5.93144C10.3883 6.05845 10.4915 6.16171 10.6186 6.22643C10.7629 6.3 10.952 6.3 11.33 6.3H14.1181M14.3 7.64205V12.51C14.3 13.6441 14.3 14.2112 14.0793 14.6443C13.8851 15.0254 13.5754 15.3351 13.1943 15.5293C12.7612 15.75 12.1941 15.75 11.06 15.75H6.74C5.60589 15.75 5.03884 15.75 4.60567 15.5293C4.22464 15.3351 3.91486 15.0254 3.72071 14.6443C3.5 14.2112 3.5 13.6441 3.5 12.51V5.49C3.5 4.35589 3.5 3.78884 3.72071 3.35567C3.91486 2.97464 4.22464 2.66486 4.60567 2.47071C5.03884 2.25 5.60589 2.25 6.74 2.25H8.90795C9.40324 2.25 9.65089 2.25 9.88394 2.30595C10.0906 2.35556 10.2881 2.43738 10.4693 2.5484C10.6736 2.67363 10.8487 2.84875 11.199 3.19897L13.351 5.35103C13.7013 5.70125 13.8764 5.87637 14.0016 6.08072C14.1126 6.2619 14.1944 6.45943 14.244 6.66606C14.3 6.89911 14.3 7.14676 14.3 7.64205Z" stroke="#F3F4F6" stroke-width="2" stroke-linecap="round" stroke-linejoin="round" />
</svg> 