<svg width="148" height="36" viewBox="0 0 148 36" fill="none" xmlns="http://www.w3.org/2000/svg">
<g clip-path="url(#clip0_31_331)">
<path opacity="0.16" d="M13.2423 17.0826C13.6908 15.409 15.4111 13.6887 17.0847 13.2402L27.5187 10.444C29.1923 9.9955 30.1854 10.9886 29.7369 12.6622L26.9407 23.0962C26.4922 24.7698 24.7719 26.4901 23.0983 26.9387L12.6643 29.7349C10.9907 30.1834 9.99755 29.1902 10.4461 27.5166L13.2423 17.0826Z" fill="#6366F1"/>
<path d="M9.05934 12.8996C9.50784 11.226 11.2282 9.50574 12.9018 9.05723L23.3357 6.26103C25.0094 5.81252 26.0025 6.80566 25.554 8.47926L22.7578 18.9133C22.3093 20.5869 20.589 22.3072 18.9154 22.7557L8.48136 25.5519C6.80776 26.0004 5.81463 25.0072 6.26313 23.3336L9.05934 12.8996Z" fill="#6366F1"/>
<path d="M45.008 23.5V13.07H48.41C49.5113 13.07 50.468 13.294 51.28 13.742C52.1013 14.1807 52.736 14.792 53.184 15.576C53.632 16.3507 53.856 17.2513 53.856 18.278C53.856 19.2953 53.632 20.2007 53.184 20.994C52.736 21.778 52.1013 22.394 51.28 22.842C50.468 23.2807 49.5113 23.5 48.41 23.5H45.008ZM46.912 21.82H48.452C49.1613 21.82 49.7727 21.6753 50.286 21.386C50.8087 21.0873 51.2147 20.6767 51.504 20.154C51.7933 19.622 51.938 18.9967 51.938 18.278C51.938 17.55 51.7933 16.9247 51.504 16.402C51.2147 15.8793 50.8087 15.4733 50.286 15.184C49.7727 14.8947 49.1613 14.75 48.452 14.75H46.912V21.82ZM59.1293 23.668C58.3453 23.668 57.6593 23.4907 57.0713 23.136C56.4833 22.7813 56.0259 22.3007 55.6993 21.694C55.3726 21.0873 55.2093 20.4153 55.2093 19.678C55.2093 18.9127 55.3726 18.236 55.6993 17.648C56.0353 17.0507 56.4879 16.5793 57.0573 16.234C57.6359 15.8887 58.2799 15.716 58.9893 15.716C59.5866 15.716 60.1093 15.814 60.5573 16.01C61.0146 16.206 61.4019 16.4767 61.7193 16.822C62.0366 17.1673 62.2793 17.564 62.4473 18.012C62.6153 18.4507 62.6993 18.9267 62.6993 19.44C62.6993 19.5707 62.6899 19.706 62.6713 19.846C62.6619 19.986 62.6386 20.1073 62.6013 20.21H56.7213V18.81H61.5653L60.6973 19.468C60.7813 19.0387 60.7579 18.656 60.6273 18.32C60.5059 17.984 60.3006 17.718 60.0113 17.522C59.7313 17.326 59.3906 17.228 58.9893 17.228C58.6066 17.228 58.2659 17.326 57.9673 17.522C57.6686 17.7087 57.4399 17.9887 57.2813 18.362C57.1319 18.726 57.0759 19.1693 57.1133 19.692C57.0759 20.1587 57.1366 20.574 57.2953 20.938C57.4633 21.2927 57.7059 21.568 58.0233 21.764C58.3499 21.96 58.7233 22.058 59.1433 22.058C59.5633 22.058 59.9179 21.9693 60.2073 21.792C60.5059 21.6147 60.7393 21.3767 60.9073 21.078L62.3913 21.806C62.2419 22.17 62.0086 22.492 61.6913 22.772C61.3739 23.052 60.9959 23.2713 60.5573 23.43C60.1279 23.5887 59.6519 23.668 59.1293 23.668ZM66.5488 23.5L63.5528 15.884H65.5548L67.7248 21.876H66.9828L69.1668 15.884H71.1688L68.1728 23.5H66.5488ZM72.4825 23.5V15.884H74.3165V23.5H72.4825ZM72.4825 15.03V13.07H74.3165V15.03H72.4825ZM78.6199 23.668C78.0879 23.668 77.6259 23.5793 77.2339 23.402C76.8419 23.2247 76.5385 22.9727 76.3239 22.646C76.1092 22.31 76.0019 21.9227 76.0019 21.484C76.0019 21.064 76.0952 20.6907 76.2819 20.364C76.4685 20.028 76.7579 19.748 77.1499 19.524C77.5419 19.3 78.0365 19.1413 78.6339 19.048L81.1259 18.642V20.042L78.9839 20.406C78.6199 20.4713 78.3492 20.588 78.1719 20.756C77.9945 20.924 77.9059 21.1433 77.9059 21.414C77.9059 21.6753 78.0039 21.8853 78.1999 22.044C78.4052 22.1933 78.6572 22.268 78.9559 22.268C79.3385 22.268 79.6745 22.1887 79.9639 22.03C80.2625 21.862 80.4912 21.6333 80.6499 21.344C80.8179 21.0547 80.9019 20.7373 80.9019 20.392V18.432C80.9019 18.1053 80.7712 17.8347 80.5099 17.62C80.2579 17.396 79.9219 17.284 79.5019 17.284C79.1099 17.284 78.7599 17.3913 78.4519 17.606C78.1532 17.8113 77.9339 18.0867 77.7939 18.432L76.2959 17.704C76.4452 17.3027 76.6785 16.9573 76.9959 16.668C77.3225 16.3693 77.7052 16.136 78.1439 15.968C78.5825 15.8 79.0585 15.716 79.5719 15.716C80.1972 15.716 80.7479 15.8327 81.2239 16.066C81.6999 16.29 82.0685 16.6073 82.3299 17.018C82.6005 17.4193 82.7359 17.8907 82.7359 18.432V23.5H80.9999V22.198L81.3919 22.17C81.1959 22.4967 80.9625 22.772 80.6919 22.996C80.4212 23.2107 80.1132 23.3787 79.7679 23.5C79.4225 23.612 79.0399 23.668 78.6199 23.668ZM87.629 23.668C86.817 23.668 86.1076 23.4767 85.501 23.094C84.9036 22.702 84.493 22.1747 84.269 21.512L85.641 20.854C85.837 21.2833 86.1076 21.6193 86.453 21.862C86.8076 22.1047 87.1996 22.226 87.629 22.226C87.965 22.226 88.231 22.1513 88.427 22.002C88.623 21.8527 88.721 21.6567 88.721 21.414C88.721 21.2647 88.679 21.1433 88.595 21.05C88.5203 20.9473 88.413 20.8633 88.273 20.798C88.1423 20.7233 87.9976 20.6627 87.839 20.616L86.593 20.266C85.949 20.0793 85.459 19.7947 85.123 19.412C84.7963 19.0293 84.633 18.5767 84.633 18.054C84.633 17.5873 84.7496 17.1813 84.983 16.836C85.2256 16.4813 85.557 16.206 85.977 16.01C86.4063 15.814 86.8963 15.716 87.447 15.716C88.1656 15.716 88.8003 15.8887 89.351 16.234C89.9016 16.5793 90.2936 17.0647 90.527 17.69L89.127 18.348C88.9963 18.0027 88.777 17.7273 88.469 17.522C88.161 17.3167 87.8156 17.214 87.433 17.214C87.125 17.214 86.8823 17.284 86.705 17.424C86.5276 17.564 86.439 17.746 86.439 17.97C86.439 18.11 86.4763 18.2313 86.551 18.334C86.6256 18.4367 86.7283 18.5207 86.859 18.586C86.999 18.6513 87.1576 18.712 87.335 18.768L88.553 19.132C89.1783 19.3187 89.659 19.5987 89.995 19.972C90.3403 20.3453 90.513 20.8027 90.513 21.344C90.513 21.8013 90.3916 22.2073 90.149 22.562C89.9063 22.9073 89.5703 23.178 89.141 23.374C88.7116 23.57 88.2076 23.668 87.629 23.668ZM95.1646 23.5V13.07H97.0686V18.502L96.5506 18.32L100.989 13.07H103.383L99.2246 17.998L99.3366 16.654L103.509 23.5H101.269L98.4686 18.908L97.0686 20.574V23.5H95.1646ZM104.813 23.5V15.884H106.647V23.5H104.813ZM104.813 15.03V13.07H106.647V15.03H104.813ZM112.112 23.584C111.253 23.584 110.586 23.3507 110.11 22.884C109.643 22.408 109.41 21.7407 109.41 20.882V17.522H108.094V15.884H108.234C108.607 15.884 108.897 15.786 109.102 15.59C109.307 15.394 109.41 15.1093 109.41 14.736V14.148H111.244V15.884H112.994V17.522H111.244V20.784C111.244 21.036 111.286 21.2507 111.37 21.428C111.463 21.6053 111.603 21.7407 111.79 21.834C111.986 21.9273 112.233 21.974 112.532 21.974C112.597 21.974 112.672 21.9693 112.756 21.96C112.849 21.9507 112.938 21.9413 113.022 21.932V23.5C112.891 23.5187 112.742 23.5373 112.574 23.556C112.406 23.5747 112.252 23.584 112.112 23.584Z" fill="#111927"/>
<path d="M117.665 23.5V13.07H121.557C122.267 13.07 122.892 13.2007 123.433 13.462C123.984 13.714 124.413 14.0873 124.721 14.582C125.029 15.0673 125.183 15.66 125.183 16.36C125.183 17.0507 125.025 17.6433 124.707 18.138C124.399 18.6233 123.975 18.9967 123.433 19.258C122.892 19.5193 122.267 19.65 121.557 19.65H119.569V23.5H117.665ZM119.569 17.97H121.585C121.931 17.97 122.229 17.9047 122.481 17.774C122.733 17.634 122.929 17.4427 123.069 17.2C123.209 16.9573 123.279 16.6773 123.279 16.36C123.279 16.0333 123.209 15.7533 123.069 15.52C122.929 15.2773 122.733 15.0907 122.481 14.96C122.229 14.82 121.931 14.75 121.585 14.75H119.569V17.97ZM127.044 23.5V13.07H130.922C131.631 13.07 132.256 13.2007 132.798 13.462C133.348 13.714 133.778 14.0873 134.086 14.582C134.394 15.0673 134.548 15.66 134.548 16.36C134.548 17.0787 134.375 17.69 134.03 18.194C133.694 18.698 133.236 19.0713 132.658 19.314L135.052 23.5H132.896L130.334 18.922L131.566 19.65H128.948V23.5H127.044ZM128.948 17.97H130.95C131.295 17.97 131.594 17.9047 131.846 17.774C132.098 17.634 132.294 17.4427 132.434 17.2C132.574 16.9573 132.644 16.6773 132.644 16.36C132.644 16.0333 132.574 15.7533 132.434 15.52C132.294 15.2773 132.098 15.0907 131.846 14.96C131.594 14.82 131.295 14.75 130.95 14.75H128.948V17.97ZM141.737 23.668C140.972 23.668 140.258 23.5327 139.595 23.262C138.933 22.9913 138.354 22.6133 137.859 22.128C137.365 21.6427 136.977 21.0733 136.697 20.42C136.427 19.7573 136.291 19.0433 136.291 18.278C136.291 17.5033 136.427 16.7893 136.697 16.136C136.968 15.4827 137.351 14.9133 137.845 14.428C138.34 13.9427 138.919 13.5693 139.581 13.308C140.244 13.0373 140.963 12.902 141.737 12.902C142.512 12.902 143.231 13.0373 143.893 13.308C144.556 13.5787 145.135 13.9567 145.629 14.442C146.124 14.918 146.507 15.4827 146.777 16.136C147.057 16.7893 147.197 17.5033 147.197 18.278C147.197 19.0433 147.057 19.7573 146.777 20.42C146.497 21.0733 146.11 21.6427 145.615 22.128C145.121 22.6133 144.542 22.9913 143.879 23.262C143.226 23.5327 142.512 23.668 141.737 23.668ZM141.737 21.932C142.251 21.932 142.722 21.8433 143.151 21.666C143.581 21.4793 143.954 21.2227 144.271 20.896C144.598 20.5693 144.845 20.182 145.013 19.734C145.191 19.286 145.279 18.8007 145.279 18.278C145.279 17.7553 145.191 17.2747 145.013 16.836C144.845 16.388 144.598 16.0007 144.271 15.674C143.954 15.338 143.581 15.0813 143.151 14.904C142.722 14.7267 142.251 14.638 141.737 14.638C141.233 14.638 140.767 14.7267 140.337 14.904C139.908 15.0813 139.53 15.338 139.203 15.674C138.886 16.0007 138.639 16.388 138.461 16.836C138.284 17.2747 138.195 17.7553 138.195 18.278C138.195 18.8007 138.284 19.286 138.461 19.734C138.639 20.182 138.886 20.5693 139.203 20.896C139.53 21.2227 139.908 21.4793 140.337 21.666C140.767 21.8433 141.233 21.932 141.737 21.932Z" fill="#6366F1"/>
</g>
<defs>
<clipPath id="clip0_31_331">
<rect width="148" height="36" fill="white"/>
</clipPath>
</defs>
</svg>
