<svg width="248" height="42" viewBox="0 0 248 42" fill="none" xmlns="http://www.w3.org/2000/svg">
  <rect x="0.5" y="1.5" width="39" height="39" rx="7.5" stroke="#384250" />
  <g clip-path="url(#clip0_31_685)">
    <path opacity="0.16" d="M15.3744 20.0827C15.8104 18.4091 17.483 16.6888 19.1101 16.2402L29.2542 13.444C30.8814 12.9955 31.8469 13.9887 31.4109 15.6623L28.6923 26.0963C28.2563 27.7699 26.5837 29.4902 24.9566 29.9387L14.8125 32.7349C13.1854 33.1834 12.2198 32.1903 12.6559 30.5167L15.3744 20.0827Z" fill="#6366F1" />
    <path d="M11.3077 15.8996C11.7437 14.226 13.4163 12.5057 15.0434 12.0572L25.1875 9.26101C26.8146 8.81251 27.7802 9.80564 27.3441 11.4792L24.6256 21.9132C24.1896 23.5868 22.517 25.3071 20.8899 25.7557L10.7458 28.5519C9.11865 29.0004 8.1531 28.0072 8.58915 26.3336L11.3077 15.8996Z" fill="#6366F1" />
  </g>
  <path d="M57.296 18V4.59H61.67C63.086 4.59 64.316 4.878 65.36 5.454C66.416 6.018 67.232 6.804 67.808 7.812C68.384 8.808 68.672 9.966 68.672 11.286C68.672 12.594 68.384 13.758 67.808 14.778C67.232 15.786 66.416 16.578 65.36 17.154C64.316 17.718 63.086 18 61.67 18H57.296ZM59.744 15.84H61.724C62.636 15.84 63.422 15.654 64.082 15.282C64.754 14.898 65.276 14.37 65.648 13.698C66.02 13.014 66.206 12.21 66.206 11.286C66.206 10.35 66.02 9.546 65.648 8.874C65.276 8.202 64.754 7.68 64.082 7.308C63.422 6.936 62.636 6.75 61.724 6.75H59.744V15.84ZM75.0662 18.216C74.0582 18.216 73.1762 17.988 72.4202 17.532C71.6642 17.076 71.0762 16.458 70.6562 15.678C70.2362 14.898 70.0262 14.034 70.0262 13.086C70.0262 12.102 70.2362 11.232 70.6562 10.476C71.0882 9.708 71.6702 9.102 72.4022 8.658C73.1462 8.214 73.9742 7.992 74.8862 7.992C75.6542 7.992 76.3262 8.118 76.9022 8.37C77.4902 8.622 77.9882 8.97 78.3962 9.414C78.8042 9.858 79.1162 10.368 79.3322 10.944C79.5482 11.508 79.6562 12.12 79.6562 12.78C79.6562 12.948 79.6442 13.122 79.6202 13.302C79.6082 13.482 79.5782 13.638 79.5302 13.77H71.9702V11.97H78.1982L77.0822 12.816C77.1902 12.264 77.1602 11.772 76.9922 11.34C76.8362 10.908 76.5722 10.566 76.2002 10.314C75.8402 10.062 75.4022 9.936 74.8862 9.936C74.3942 9.936 73.9562 10.062 73.5722 10.314C73.1882 10.554 72.8942 10.914 72.6902 11.394C72.4982 11.862 72.4262 12.432 72.4742 13.104C72.4262 13.704 72.5042 14.238 72.7082 14.706C72.9242 15.162 73.2362 15.516 73.6442 15.768C74.0642 16.02 74.5442 16.146 75.0842 16.146C75.6242 16.146 76.0802 16.032 76.4522 15.804C76.8362 15.576 77.1362 15.27 77.3522 14.886L79.2602 15.822C79.0682 16.29 78.7682 16.704 78.3602 17.064C77.9522 17.424 77.4662 17.706 76.9022 17.91C76.3502 18.114 75.7382 18.216 75.0662 18.216ZM84.2199 18L80.3679 8.208H82.9419L85.7319 15.912H84.7779L87.5859 8.208H90.1599L86.3079 18H84.2199ZM91.4632 18V8.208H93.8212V18H91.4632ZM91.4632 7.11V4.59H93.8212V7.11H91.4632ZM98.9684 18.216C98.2844 18.216 97.6904 18.102 97.1864 17.874C96.6824 17.646 96.2924 17.322 96.0164 16.902C95.7404 16.47 95.6024 15.972 95.6024 15.408C95.6024 14.868 95.7224 14.388 95.9624 13.968C96.2024 13.536 96.5744 13.176 97.0784 12.888C97.5824 12.6 98.2184 12.396 98.9864 12.276L102.19 11.754V13.554L99.4364 14.022C98.9684 14.106 98.6204 14.256 98.3924 14.472C98.1644 14.688 98.0504 14.97 98.0504 15.318C98.0504 15.654 98.1764 15.924 98.4284 16.128C98.6924 16.32 99.0164 16.416 99.4004 16.416C99.8924 16.416 100.324 16.314 100.696 16.11C101.08 15.894 101.374 15.6 101.578 15.228C101.794 14.856 101.902 14.448 101.902 14.004V11.484C101.902 11.064 101.734 10.716 101.398 10.44C101.074 10.152 100.642 10.008 100.102 10.008C99.5984 10.008 99.1484 10.146 98.7524 10.422C98.3684 10.686 98.0864 11.04 97.9064 11.484L95.9804 10.548C96.1724 10.032 96.4724 9.588 96.8804 9.216C97.3004 8.832 97.7924 8.532 98.3564 8.316C98.9204 8.1 99.5324 7.992 100.192 7.992C100.996 7.992 101.704 8.142 102.316 8.442C102.928 8.73 103.402 9.138 103.738 9.666C104.086 10.182 104.26 10.788 104.26 11.484V18H102.028V16.326L102.532 16.29C102.28 16.71 101.98 17.064 101.632 17.352C101.284 17.628 100.888 17.844 100.444 18C100 18.144 99.5084 18.216 98.9684 18.216ZM110.166 18.216C109.122 18.216 108.21 17.97 107.43 17.478C106.662 16.974 106.134 16.296 105.846 15.444L107.61 14.598C107.862 15.15 108.21 15.582 108.654 15.894C109.11 16.206 109.614 16.362 110.166 16.362C110.598 16.362 110.94 16.266 111.192 16.074C111.444 15.882 111.57 15.63 111.57 15.318C111.57 15.126 111.516 14.97 111.408 14.85C111.312 14.718 111.174 14.61 110.994 14.526C110.826 14.43 110.64 14.352 110.436 14.292L108.834 13.842C108.006 13.602 107.376 13.236 106.944 12.744C106.524 12.252 106.314 11.67 106.314 10.998C106.314 10.398 106.464 9.876 106.764 9.432C107.076 8.976 107.502 8.622 108.042 8.37C108.594 8.118 109.224 7.992 109.932 7.992C110.856 7.992 111.672 8.214 112.38 8.658C113.088 9.102 113.592 9.726 113.892 10.53L112.092 11.376C111.924 10.932 111.642 10.578 111.246 10.314C110.85 10.05 110.406 9.918 109.914 9.918C109.518 9.918 109.206 10.008 108.978 10.188C108.75 10.368 108.636 10.602 108.636 10.89C108.636 11.07 108.684 11.226 108.78 11.358C108.876 11.49 109.008 11.598 109.176 11.682C109.356 11.766 109.56 11.844 109.788 11.916L111.354 12.384C112.158 12.624 112.776 12.984 113.208 13.464C113.652 13.944 113.874 14.532 113.874 15.228C113.874 15.816 113.718 16.338 113.406 16.794C113.094 17.238 112.662 17.586 112.11 17.838C111.558 18.09 110.91 18.216 110.166 18.216Z" fill="#F3F4F6" />
  <path d="M56.9588 36V27.2727H60.0696C60.7486 27.2727 61.3111 27.3963 61.7571 27.6435C62.2031 27.8906 62.5369 28.2287 62.7585 28.6577C62.9801 29.0838 63.0909 29.5639 63.0909 30.098C63.0909 30.6349 62.9787 31.1179 62.7543 31.5469C62.5327 31.973 62.1974 32.3111 61.7486 32.5611C61.3026 32.8082 60.7415 32.9318 60.0653 32.9318H57.9261V31.8153H59.946C60.375 31.8153 60.723 31.7415 60.9901 31.5938C61.2571 31.4432 61.4531 31.2386 61.5781 30.9801C61.7031 30.7216 61.7656 30.4276 61.7656 30.098C61.7656 29.7685 61.7031 29.4759 61.5781 29.2202C61.4531 28.9645 61.2557 28.7642 60.9858 28.6193C60.7188 28.4744 60.3665 28.402 59.929 28.402H58.2756V36H56.9588ZM64.5323 36V29.4545H65.7638V30.4943H65.832C65.9513 30.142 66.1616 29.8651 66.4627 29.6634C66.7667 29.4588 67.1104 29.3565 67.494 29.3565C67.5735 29.3565 67.6673 29.3594 67.7752 29.3651C67.886 29.3707 67.9727 29.3778 68.0352 29.3864V30.6051C67.984 30.5909 67.8931 30.5753 67.7624 30.5582C67.6317 30.5384 67.5011 30.5284 67.3704 30.5284C67.0692 30.5284 66.8008 30.5923 66.565 30.7202C66.332 30.8452 66.1474 31.0199 66.011 31.2443C65.8746 31.4659 65.8065 31.7187 65.8065 32.0028V36H64.5323ZM71.7244 36.1321C71.0795 36.1321 70.5241 35.9943 70.0582 35.7188C69.5952 35.4403 69.2372 35.0497 68.9844 34.5469C68.7344 34.0412 68.6094 33.4489 68.6094 32.7699C68.6094 32.0994 68.7344 31.5085 68.9844 30.9972C69.2372 30.4858 69.5895 30.0866 70.0412 29.7997C70.4957 29.5128 71.027 29.3693 71.6349 29.3693C72.0043 29.3693 72.3622 29.4304 72.7088 29.5526C73.0554 29.6747 73.3665 29.8665 73.642 30.1278C73.9176 30.3892 74.1349 30.7287 74.294 31.1463C74.4531 31.5611 74.5327 32.0653 74.5327 32.6591V33.1108H69.3295V32.1562H73.2841C73.2841 31.821 73.2159 31.5241 73.0795 31.2656C72.9432 31.0043 72.7514 30.7983 72.5043 30.6477C72.2599 30.4972 71.973 30.4219 71.6435 30.4219C71.2855 30.4219 70.973 30.5099 70.706 30.6861C70.4418 30.8594 70.2372 31.0866 70.0923 31.3679C69.9503 31.6463 69.8793 31.9489 69.8793 32.2756V33.0213C69.8793 33.4588 69.956 33.831 70.1094 34.1378C70.2656 34.4446 70.483 34.679 70.7614 34.8409C71.0398 35 71.3651 35.0795 71.7372 35.0795C71.9787 35.0795 72.1989 35.0455 72.3977 34.9773C72.5966 34.9062 72.7685 34.8011 72.9134 34.6619C73.0582 34.5227 73.169 34.3509 73.2457 34.1463L74.4517 34.3636C74.3551 34.7187 74.1818 35.0298 73.9318 35.2969C73.6847 35.5611 73.3736 35.767 72.9986 35.9148C72.6264 36.0597 72.2017 36.1321 71.7244 36.1321ZM75.9464 36V29.4545H77.1694V30.5199H77.2504C77.3867 30.1591 77.6097 29.8778 77.9194 29.6761C78.229 29.4716 78.5998 29.3693 79.0316 29.3693C79.4691 29.3693 79.8356 29.4716 80.131 29.6761C80.4293 29.8807 80.6495 30.1619 80.7915 30.5199H80.8597C81.016 30.1705 81.2646 29.892 81.6055 29.6847C81.9464 29.4744 82.3526 29.3693 82.8242 29.3693C83.418 29.3693 83.9023 29.5554 84.2773 29.9276C84.6552 30.2997 84.8441 30.8608 84.8441 31.6108V36H83.57V31.7301C83.57 31.2869 83.4492 30.9659 83.2077 30.767C82.9663 30.5682 82.6779 30.4688 82.3427 30.4688C81.9279 30.4688 81.6055 30.5966 81.3754 30.8523C81.1452 31.1051 81.0302 31.4304 81.0302 31.8281V36H79.7603V31.6491C79.7603 31.294 79.6495 31.0085 79.4279 30.7926C79.2063 30.5767 78.918 30.4688 78.5629 30.4688C78.3214 30.4688 78.0984 30.5327 77.8938 30.6605C77.6921 30.7855 77.5288 30.9602 77.4038 31.1847C77.2816 31.4091 77.2205 31.669 77.2205 31.9645V36H75.9464ZM86.5518 36V29.4545H87.826V36H86.5518ZM87.1953 28.4446C86.9737 28.4446 86.7834 28.3707 86.6243 28.223C86.468 28.0724 86.3899 27.8935 86.3899 27.6861C86.3899 27.4759 86.468 27.2969 86.6243 27.1491C86.7834 26.9986 86.9737 26.9233 87.1953 26.9233C87.4169 26.9233 87.6058 26.9986 87.7621 27.1491C87.9212 27.2969 88.0007 27.4759 88.0007 27.6861C88.0007 27.8935 87.9212 28.0724 87.7621 28.223C87.6058 28.3707 87.4169 28.4446 87.1953 28.4446ZM93.6864 33.2855V29.4545H94.9648V36H93.712V34.8665H93.6438C93.4933 35.2159 93.2518 35.5071 92.9194 35.7401C92.5898 35.9702 92.1793 36.0852 91.6879 36.0852C91.2674 36.0852 90.8952 35.9929 90.5714 35.8082C90.2504 35.6207 89.9975 35.3438 89.8129 34.9773C89.631 34.6108 89.5401 34.1577 89.5401 33.6179V29.4545H90.8143V33.4645C90.8143 33.9105 90.9379 34.2656 91.185 34.5298C91.4322 34.794 91.7532 34.9261 92.1481 34.9261C92.3867 34.9261 92.6239 34.8665 92.8597 34.7472C93.0984 34.6278 93.2958 34.4474 93.4521 34.206C93.6112 33.9645 93.6893 33.6577 93.6864 33.2855ZM96.6768 36V29.4545H97.8999V30.5199H97.9808C98.1172 30.1591 98.3402 29.8778 98.6499 29.6761C98.9595 29.4716 99.3303 29.3693 99.7621 29.3693C100.2 29.3693 100.566 29.4716 100.862 29.6761C101.16 29.8807 101.38 30.1619 101.522 30.5199H101.59C101.746 30.1705 101.995 29.892 102.336 29.6847C102.677 29.4744 103.083 29.3693 103.555 29.3693C104.148 29.3693 104.633 29.5554 105.008 29.9276C105.386 30.2997 105.575 30.8608 105.575 31.6108V36H104.3V31.7301C104.3 31.2869 104.18 30.9659 103.938 30.767C103.697 30.5682 103.408 30.4688 103.073 30.4688C102.658 30.4688 102.336 30.5966 102.106 30.8523C101.876 31.1051 101.761 31.4304 101.761 31.8281V36H100.491V31.6491C100.491 31.294 100.38 31.0085 100.158 30.7926C99.9368 30.5767 99.6484 30.4688 99.2933 30.4688C99.0518 30.4688 98.8288 30.5327 98.6243 30.6605C98.4226 30.7855 98.2592 30.9602 98.1342 31.1847C98.0121 31.4091 97.951 31.669 97.951 31.9645V36H96.6768ZM113.513 29.4545V30.4773H109.938V29.4545H113.513ZM110.897 27.8864H112.171V34.0781C112.171 34.3253 112.208 34.5114 112.282 34.6364C112.356 34.7585 112.451 34.8423 112.567 34.8878C112.687 34.9304 112.816 34.9517 112.955 34.9517C113.058 34.9517 113.147 34.9446 113.224 34.9304C113.3 34.9162 113.36 34.9048 113.403 34.8963L113.633 35.9489C113.559 35.9773 113.454 36.0057 113.317 36.0341C113.181 36.0653 113.011 36.0824 112.806 36.0852C112.471 36.0909 112.158 36.0312 111.869 35.9062C111.579 35.7812 111.344 35.5881 111.165 35.3267C110.987 35.0653 110.897 34.7372 110.897 34.3423V27.8864ZM114.923 36V29.4545H116.197V36H114.923ZM115.566 28.4446C115.345 28.4446 115.154 28.3707 114.995 28.223C114.839 28.0724 114.761 27.8935 114.761 27.6861C114.761 27.4759 114.839 27.2969 114.995 27.1491C115.154 26.9986 115.345 26.9233 115.566 26.9233C115.788 26.9233 115.977 26.9986 116.133 27.1491C116.292 27.2969 116.372 27.4759 116.372 27.6861C116.372 27.8935 116.292 28.0724 116.133 28.223C115.977 28.3707 115.788 28.4446 115.566 28.4446ZM120.732 36.1321C120.087 36.1321 119.532 35.9943 119.066 35.7188C118.603 35.4403 118.245 35.0497 117.992 34.5469C117.742 34.0412 117.617 33.4489 117.617 32.7699C117.617 32.0994 117.742 31.5085 117.992 30.9972C118.245 30.4858 118.597 30.0866 119.049 29.7997C119.504 29.5128 120.035 29.3693 120.643 29.3693C121.012 29.3693 121.37 29.4304 121.717 29.5526C122.063 29.6747 122.374 29.8665 122.65 30.1278C122.925 30.3892 123.143 30.7287 123.302 31.1463C123.461 31.5611 123.54 32.0653 123.54 32.6591V33.1108H118.337V32.1562H122.292C122.292 31.821 122.224 31.5241 122.087 31.2656C121.951 31.0043 121.759 30.7983 121.512 30.6477C121.268 30.4972 120.981 30.4219 120.651 30.4219C120.293 30.4219 119.981 30.5099 119.714 30.6861C119.45 30.8594 119.245 31.0866 119.1 31.3679C118.958 31.6463 118.887 31.9489 118.887 32.2756V33.0213C118.887 33.4588 118.964 33.831 119.117 34.1378C119.273 34.4446 119.491 34.679 119.769 34.8409C120.048 35 120.373 35.0795 120.745 35.0795C120.987 35.0795 121.207 35.0455 121.406 34.9773C121.604 34.9062 121.776 34.8011 121.921 34.6619C122.066 34.5227 122.177 34.3509 122.254 34.1463L123.46 34.3636C123.363 34.7187 123.19 35.0298 122.94 35.2969C122.692 35.5611 122.381 35.767 122.006 35.9148C121.634 36.0597 121.21 36.1321 120.732 36.1321ZM124.954 36V29.4545H126.186V30.4943H126.254C126.373 30.142 126.583 29.8651 126.885 29.6634C127.189 29.4588 127.532 29.3565 127.916 29.3565C127.995 29.3565 128.089 29.3594 128.197 29.3651C128.308 29.3707 128.395 29.3778 128.457 29.3864V30.6051C128.406 30.5909 128.315 30.5753 128.184 30.5582C128.054 30.5384 127.923 30.5284 127.792 30.5284C127.491 30.5284 127.223 30.5923 126.987 30.7202C126.754 30.8452 126.569 31.0199 126.433 31.2443C126.297 31.4659 126.228 31.7187 126.228 32.0028V36H124.954Z" fill="#B5BCC4" />
  <defs>
    <clipPath id="clip0_31_685">
      <rect width="35" height="35" fill="white" transform="translate(2.5 3.5)" />
    </clipPath>
  </defs>
</svg>