<svg xmlns="http://www.w3.org/2000/svg" width="20" height="20" viewBox="0 0 20 20" fill="none">
  <path opacity="0.12" d="M3.33331 6.5C3.33331 5.09987 3.33331 4.3998 3.6058 3.86502C3.84548 3.39462 4.22793 3.01217 4.69834 2.77248C5.23312 2.5 5.93318 2.5 7.33331 2.5H12.6666C14.0668 2.5 14.7668 2.5 15.3016 2.77248C15.772 3.01217 16.1545 3.39462 16.3942 3.86502C16.6666 4.3998 16.6666 5.09987 16.6666 6.5V17.5L14.375 15.8333L12.2916 17.5L9.99998 15.8333L7.70831 17.5L5.62498 15.8333L3.33331 17.5V6.5Z" fill="#B5BCC4" />
  <path d="M7.49998 8.75L9.16665 10.4167L12.9166 6.66667M16.6666 17.5V6.5C16.6666 5.09987 16.6666 4.3998 16.3942 3.86502C16.1545 3.39462 15.772 3.01217 15.3016 2.77248C14.7668 2.5 14.0668 2.5 12.6666 2.5H7.33331C5.93318 2.5 5.23312 2.5 4.69834 2.77248C4.22793 3.01217 3.84548 3.39462 3.6058 3.86502C3.33331 4.3998 3.33331 5.09987 3.33331 6.5V17.5L5.62498 15.8333L7.70831 17.5L9.99998 15.8333L12.2916 17.5L14.375 15.8333L16.6666 17.5Z" stroke="#B5BCC4" stroke-width="2" stroke-linecap="round" stroke-linejoin="round" />
</svg>