<svg xmlns="http://www.w3.org/2000/svg" width="20" height="20" viewBox="0 0 20 20" fill="none">
  <path opacity="0.12" d="M13.5695 17.5C15.0785 17.5 15.8329 17.5 16.3898 17.1985C16.8791 16.9336 17.2661 16.5131 17.4894 16.0035C17.7436 15.4235 17.681 14.6716 17.5557 13.1678L16.9723 6.16782C16.8645 4.87396 16.8106 4.22703 16.5241 3.73738C16.2718 3.3062 15.8961 2.9605 15.4454 2.74487C14.9337 2.5 14.2845 2.5 12.9861 2.5L7.01387 2.5C5.71552 2.5 5.06635 2.5 4.5546 2.74487C4.10396 2.9605 3.72825 3.3062 3.47594 3.73738C3.18942 4.22703 3.13551 4.87396 3.02768 6.16782L2.44435 13.1678C2.31904 14.6716 2.25638 15.4235 2.51057 16.0035C2.73391 16.5131 3.12086 16.9336 3.61016 17.1985C4.16706 17.5 4.92155 17.5 6.43053 17.5H13.5695Z" fill="#B5BCC4" />
  <path d="M13.3333 6.66667C13.3333 7.55072 12.9821 8.39857 12.357 9.02369C11.7319 9.64881 10.8841 10 10 10C9.11595 10 8.2681 9.64881 7.64298 9.02369C7.01786 8.39857 6.66667 7.55072 6.66667 6.66667M3.02768 6.16782L2.44435 13.1678C2.31904 14.6716 2.25638 15.4235 2.51057 16.0035C2.73391 16.5131 3.12086 16.9336 3.61016 17.1985C4.16706 17.5 4.92155 17.5 6.43053 17.5H13.5695C15.0785 17.5 15.8329 17.5 16.3898 17.1985C16.8791 16.9336 17.2661 16.5131 17.4894 16.0035C17.7436 15.4235 17.681 14.6716 17.5557 13.1678L16.9723 6.16782C16.8645 4.87396 16.8106 4.22703 16.5241 3.73738C16.2718 3.3062 15.8961 2.9605 15.4454 2.74487C14.9337 2.5 14.2845 2.5 12.9861 2.5L7.01387 2.5C5.71552 2.5 5.06635 2.5 4.5546 2.74487C4.10396 2.9605 3.72825 3.3062 3.47594 3.73738C3.18942 4.22703 3.13551 4.87396 3.02768 6.16782Z" stroke="#B5BCC4" stroke-width="2" stroke-linecap="round" stroke-linejoin="round" />
</svg>