<svg xmlns="http://www.w3.org/2000/svg" width="20" height="20" viewBox="0 0 20 20" fill="none">
  <path opacity="0.12" d="M4.33335 3.33333H9.00002C9.93344 3.33333 10.4002 3.33333 10.7567 3.51498C11.0703 3.67477 11.3252 3.92974 11.485 4.24334C11.6667 4.59986 11.6667 5.06657 11.6667 5.99999V14.1667H8.33335C8.33335 12.7859 7.21407 11.6667 5.83335 11.6667C4.45798 11.6667 3.342 12.7773 3.3334 14.1507C3.00653 14.1307 2.77464 14.0859 2.5767 13.985C2.2631 13.8252 2.00813 13.5703 1.84834 13.2566C1.66669 12.9001 1.66669 12.4334 1.66669 11.5V5.99999C1.66669 5.06657 1.66669 4.59986 1.84834 4.24334C2.00813 3.92974 2.2631 3.67477 2.5767 3.51498C2.93322 3.33333 3.39993 3.33333 4.33335 3.33333Z" fill="#B5BCC4" />
  <path d="M11.6667 5.83333H13.6144C13.8182 5.83333 13.9201 5.83333 14.016 5.85635C14.1011 5.87677 14.1824 5.91044 14.2569 5.95613C14.341 6.00766 14.4131 6.07973 14.5572 6.22385L17.9428 9.60947C18.087 9.7536 18.159 9.82566 18.2106 9.90976C18.2562 9.98432 18.2899 10.0656 18.3103 10.1506C18.3334 10.2465 18.3334 10.3485 18.3334 10.5523V12.9167C18.3334 13.3049 18.3334 13.4991 18.2699 13.6522C18.1853 13.8564 18.0231 14.0186 17.8189 14.1032C17.6658 14.1667 17.4716 14.1667 17.0834 14.1667M12.9167 14.1667H11.6667M11.6667 14.1667V5.99999C11.6667 5.06657 11.6667 4.59986 11.485 4.24334C11.3252 3.92974 11.0703 3.67477 10.7567 3.51498C10.4002 3.33333 9.93344 3.33333 9.00002 3.33333H4.33335C3.39993 3.33333 2.93322 3.33333 2.5767 3.51498C2.2631 3.67477 2.00813 3.92974 1.84834 4.24334C1.66669 4.59986 1.66669 5.06657 1.66669 5.99999V12.5C1.66669 13.4205 2.41288 14.1667 3.33335 14.1667M11.6667 14.1667H8.33335M8.33335 14.1667C8.33335 15.5474 7.21407 16.6667 5.83335 16.6667C4.45264 16.6667 3.33335 15.5474 3.33335 14.1667M8.33335 14.1667C8.33335 12.7859 7.21407 11.6667 5.83335 11.6667C4.45264 11.6667 3.33335 12.7859 3.33335 14.1667M17.0834 14.5833C17.0834 15.7339 16.1506 16.6667 15 16.6667C13.8494 16.6667 12.9167 15.7339 12.9167 14.5833C12.9167 13.4327 13.8494 12.5 15 12.5C16.1506 12.5 17.0834 13.4327 17.0834 14.5833Z" stroke="#B5BCC4" stroke-width="2" stroke-linecap="round" stroke-linejoin="round" />
</svg>